<svg width="25" height="24" viewBox="0 0 25 24" fill="none" xmlns="http://www.w3.org/2000/svg">
<g clip-path="url(#clip0_237_120)">
<path fill-rule="evenodd" clip-rule="evenodd" d="M13.2068 2.29303L17.2068 6.29303C17.3584 6.44467 17.4573 6.64103 17.4888 6.85314C17.5203 7.06525 17.4828 7.28186 17.3818 7.47103C17.1348 7.93403 16.7488 8.24603 16.3718 8.45803L19.2068 11.293C19.3943 11.4806 19.4996 11.7349 19.4996 12C19.4996 12.2652 19.3943 12.5195 19.2068 12.707C18.7288 13.185 18.1248 13.477 17.5728 13.659L20.2068 16.293C20.3273 16.4136 20.4151 16.5631 20.4616 16.7271C20.5081 16.8912 20.5119 17.0644 20.4727 17.2304C20.4334 17.3963 20.3523 17.5495 20.2372 17.6752C20.122 17.801 19.9766 17.8953 19.8148 17.949C19.1228 18.178 18.4098 18.338 17.6958 18.481C17.1538 18.589 16.5208 18.697 15.8158 18.787L16.4488 20.684C16.4989 20.8344 16.5125 20.9944 16.4886 21.1511C16.4646 21.3077 16.4038 21.4564 16.3111 21.5849C16.2184 21.7135 16.0966 21.8181 15.9555 21.8903C15.8144 21.9625 15.6582 22.0001 15.4998 22H9.49978C9.34133 22.0001 9.18514 21.9625 9.04407 21.8903C8.90301 21.8181 8.78112 21.7135 8.68844 21.5849C8.59576 21.4564 8.53495 21.3077 8.51101 21.1511C8.48708 20.9944 8.50071 20.8344 8.55078 20.684L9.18378 18.787C8.5537 18.7073 7.92664 18.6052 7.30378 18.481C6.76904 18.3744 6.23835 18.2483 5.71278 18.103L5.18278 17.949C5.0211 17.895 4.8759 17.8006 4.76098 17.6747C4.64605 17.5488 4.56522 17.3957 4.52614 17.2297C4.48707 17.0638 4.49105 16.8907 4.53772 16.7267C4.58439 16.5628 4.67219 16.4135 4.79278 16.293L7.42678 13.659C6.87478 13.478 6.27078 13.185 5.79278 12.707C5.60531 12.5195 5.5 12.2652 5.5 12C5.5 11.7349 5.60531 11.4806 5.79278 11.293L8.62778 8.45803C8.25078 8.24603 7.86478 7.93403 7.61778 7.47103C7.51679 7.28186 7.47929 7.06525 7.5108 6.85314C7.54231 6.64103 7.64117 6.44467 7.79278 6.29303L11.7928 2.29303C11.9803 2.10556 12.2346 2.00024 12.4998 2.00024C12.7649 2.00024 13.0193 2.10556 13.2068 2.29303ZM13.7688 18.968C13.0617 19.0033 12.3534 19.0093 11.6458 18.986L11.2308 18.968L10.8868 20H14.1128L13.7688 18.968ZM12.4998 4.41403L10.0278 6.88603L10.1278 6.91503L10.3148 6.95803L10.5908 7.00403C10.9738 7.04403 11.3078 7.29403 11.4408 7.65903C11.5055 7.83788 11.5178 8.03148 11.4764 8.2171C11.4349 8.40273 11.3414 8.57268 11.2068 8.70703L8.12978 11.784C8.55278 11.914 9.03478 12 9.50178 12C9.69936 12.0005 9.89238 12.0594 10.0565 12.1695C10.2206 12.2795 10.3484 12.4357 10.4238 12.6183C10.4993 12.8009 10.5189 13.0018 10.4803 13.1956C10.4416 13.3893 10.3465 13.5673 10.2068 13.707L7.44678 16.468L7.96078 16.571C9.13878 16.793 10.7178 17 12.4998 17C13.928 16.9973 15.3534 16.8708 16.7598 16.622L17.3038 16.519L17.5538 16.468L14.7928 13.708C14.6601 13.5754 14.5674 13.408 14.5254 13.2252C14.4833 13.0423 14.4935 12.8514 14.5548 12.674C14.6161 12.4967 14.7261 12.3402 14.8722 12.2225C15.0182 12.1047 15.1945 12.0304 15.3808 12.008L15.4988 12C15.9635 11.9911 16.4248 11.9184 16.8698 11.784L13.7928 8.70703C13.6662 8.58046 13.5758 8.42221 13.5312 8.24882C13.4867 8.07542 13.4894 7.89323 13.5393 7.72128C13.5892 7.54932 13.6843 7.39391 13.8147 7.27126C13.9451 7.14861 14.1061 7.06323 14.2808 7.02403L14.6038 6.97403L14.7758 6.93803C14.8378 6.92403 14.9048 6.90703 14.9718 6.88603L12.4998 4.41403Z" fill="#0FE371"/>
</g>
<defs>
<clipPath id="clip0_237_120">
<rect width="24" height="24" fill="white" transform="translate(0.5)"/>
</clipPath>
</defs>
</svg>
