<svg width="25" height="24" viewBox="0 0 25 24" fill="none" xmlns="http://www.w3.org/2000/svg">
<path d="M21 19.5V20H21.5H23C23.0663 20 23.1299 20.0263 23.1768 20.0732C23.2237 20.1201 23.25 20.1837 23.25 20.25C23.25 20.3163 23.2237 20.3799 23.1768 20.4268C23.1299 20.4737 23.0663 20.5 23 20.5H2C1.9337 20.5 1.87011 20.4737 1.82322 20.4268C1.77634 20.3799 1.75 20.3163 1.75 20.25C1.75 20.1837 1.77634 20.1201 1.82322 20.0732C1.87011 20.0263 1.93369 20 2 20H3.5H4V19.5V10.8328V10.8327C3.99998 10.6943 4.02869 10.5574 4.08431 10.4307C4.13993 10.304 4.22125 10.1902 4.32312 10.0965L4.32316 10.0965L4.32802 10.0919L11.8196 3.01567L11.8248 3.01078L11.8298 3.00574L11.8309 3.00465C12.0139 2.84173 12.2505 2.75159 12.4958 2.75159C12.7397 2.75159 12.975 2.84072 13.1576 3.00192C13.1637 3.00803 13.17 3.014 13.1764 3.01984L20.6722 10.0921L20.6722 10.0921L20.6769 10.0965C20.7788 10.1902 20.8601 10.304 20.9157 10.4307C20.9713 10.5574 21 10.6943 21 10.8327V10.8328V19.5ZM4.66365 10.4628L4.5 10.6116V10.8328V19.5V20H5H9.5H10V19.5V15C10 14.7348 10.1054 14.4804 10.2929 14.2929C10.4804 14.1053 10.7348 14 11 14H14C14.2652 14 14.5196 14.1053 14.7071 14.2929C14.8946 14.4804 15 14.7348 15 15V19.5V20H15.5H20.0009H20.5009V19.5V10.8309V10.6097L20.3373 10.4609L20.3304 10.4547L12.8432 3.38642L12.4999 3.06232L12.1567 3.38648L4.67046 10.4567L4.66365 10.4628ZM14 20H14.5V19.5V15V14.5H14H11H10.5V15V19.5V20H11H14Z" fill="black" stroke="#1DBDEF"/>
</svg>
