<svg width="25" height="24" viewBox="0 0 25 24" fill="none" xmlns="http://www.w3.org/2000/svg">
<path d="M7.75 5V4.5V3C7.75 2.9337 7.72366 2.87011 7.67678 2.82322C7.62989 2.77634 7.5663 2.75 7.5 2.75C7.4337 2.75 7.37011 2.77634 7.32322 2.82322C7.27634 2.87011 7.25 2.9337 7.25 3V4.5V5H6.75H6.5C6.01435 5 5.70058 5.00106 5.46941 5.03216C5.25273 5.06131 5.18474 5.10836 5.14655 5.14655C5.10836 5.18474 5.06131 5.25273 5.03216 5.46941C5.01066 5.62921 5.00352 5.82849 5.00116 6.09672C5.01382 6.09494 5.02646 6.0932 5.03906 6.0915L7.75 5ZM7.75 5H8.25H8.5C8.98565 5 9.29942 5.00106 9.53059 5.03216C9.74727 5.06131 9.81526 5.10836 9.85345 5.14655C9.89164 5.18474 9.93869 5.25273 9.96784 5.46941C9.98933 5.62918 9.99648 5.82841 9.99884 6.09657C9.98576 6.09477 9.9727 6.09303 9.95966 6.09133M7.75 5L9.95966 6.09133M9.95966 6.09133C9.28148 5.99998 8.46037 5.99999 7.61633 6H7.59H7.41H7.38355C6.53913 5.99999 5.71656 5.99998 5.03911 6.09149L9.95966 6.09133Z" fill="#9F1DEF" stroke="#9F1DEF"/>
<path d="M6.087 13.606L5.59149 13.5392C5.49998 14.2176 5.49999 15.0391 5.5 15.8837V15.91V21.25V21.75H6H7.5H8V21.25V16C8 15.0428 8.00106 14.3756 8.06879 13.8722C8.13456 13.3832 8.25486 13.1242 8.43955 12.9395C8.62424 12.7549 8.88323 12.6346 9.37216 12.5688C9.87558 12.5011 10.5429 12.5 11.5 12.5H13.5C14.4571 12.5 15.1244 12.5011 15.6278 12.5688C16.1168 12.6346 16.3758 12.7549 16.5604 12.9395C16.7451 13.1242 16.8654 13.3832 16.9312 13.8722C16.9989 14.3756 17 15.0428 17 16V21.25V21.75H17.5H19H19.5V21.25V15.911V15.885C19.5 15.0392 19.5 14.218 19.4096 13.539L19.4095 13.538C19.3061 12.7733 19.0551 11.898 18.3276 11.1714C17.602 10.4449 16.7268 10.1939 15.9608 10.0915C15.3857 10.0139 14.7077 10.0021 14 10.0003V7.77199C14 6.44465 14.0013 5.50582 14.1023 4.82092C14.2016 4.1472 14.3821 3.83627 14.6459 3.65286C14.9095 3.47057 15.2636 3.41072 15.9293 3.55437C16.606 3.70038 17.4856 4.0289 18.7284 4.49513L18.7288 4.49528C19.3671 4.73414 19.8074 4.89991 20.1352 5.06633C20.4518 5.22709 20.6192 5.36739 20.733 5.53168C20.8468 5.69597 20.9192 5.90204 20.9586 6.25509C20.9993 6.62056 21 7.09081 21 7.77199V21.25V21.75H21.5H22.5C22.5663 21.75 22.6299 21.7763 22.6768 21.8232C22.7237 21.8701 22.75 21.9337 22.75 22C22.75 22.0663 22.7237 22.1299 22.6768 22.1768C22.6299 22.2236 22.5663 22.25 22.5 22.25H2.5C2.4337 22.25 2.37011 22.2236 2.32322 22.1768C2.27634 22.1299 2.25 22.0663 2.25 22C2.25 21.9337 2.27634 21.8701 2.32322 21.8232C2.37011 21.7763 2.4337 21.75 2.5 21.75H3.5H4V21.25V12C4 11.0428 4.00106 10.3756 4.06879 9.87215C4.13456 9.38322 4.25486 9.12423 4.43955 8.93954C4.62424 8.75485 4.88323 8.63455 5.37216 8.56878C5.87558 8.50105 6.54285 8.49999 7.5 8.49999C8.45715 8.49999 9.12442 8.50105 9.62784 8.56878C10.1168 8.63455 10.3758 8.75485 10.5604 8.93954C10.7632 9.14229 10.8846 9.4306 10.9463 10.0005C10.2577 10.0027 9.59986 10.0157 9.03902 10.0904L9.038 10.0905C8.27334 10.1939 7.39802 10.4449 6.67145 11.1724C5.94473 11.8981 5.69376 12.7737 5.5914 13.5398L6.087 13.606ZM6.087 13.606C6.182 12.895 6.407 12.143 7.025 11.526L18.914 13.605C19 14.251 19 15.045 19 15.911V20.75V21.25H18.5H18H17.5V20.75V16C17.5 14.114 17.5 13.172 16.914 12.586C16.328 12 15.386 12 13.5 12H11.5C9.614 12 8.672 12 8.086 12.586C7.5 13.172 7.5 14.114 7.5 16V20.75V21.25H7H6.5H6V20.75V15.91C6 15.045 6 14.251 6.087 13.606ZM9.61612 14.1161C9.3817 14.3505 9.25 14.6685 9.25 15C9.25 15.3315 9.3817 15.6495 9.61612 15.8839C9.85054 16.1183 10.1685 16.25 10.5 16.25H14.5C14.8315 16.25 15.1495 16.1183 15.3839 15.8839C15.6183 15.6495 15.75 15.3315 15.75 15C15.75 14.6685 15.6183 14.3505 15.3839 14.1161C15.1495 13.8817 14.8315 13.75 14.5 13.75H10.5C10.1685 13.75 9.85054 13.8817 9.61612 14.1161ZM9.61612 17.1161C9.3817 17.3505 9.25 17.6685 9.25 18C9.25 18.3315 9.3817 18.6495 9.61612 18.8839C9.85054 19.1183 10.1685 19.25 10.5 19.25H14.5C14.8315 19.25 15.1495 19.1183 15.3839 18.8839C15.6183 18.6495 15.75 18.3315 15.75 18C15.75 17.6685 15.6183 17.3505 15.3839 17.1161C15.1495 16.8817 14.8315 16.75 14.5 16.75H10.5C10.1685 16.75 9.85054 16.8817 9.61612 17.1161Z" fill="#9F1DEF" stroke="#9F1DEF"/>
</svg>
